<svg xmlns="http://www.w3.org/2000/svg" viewBox="0 0 1836.06 220"><title>dede</title><g id="katman_2" data-name="katman 2"><g id="katman_1-2" data-name="katman 1"><path d="M.64,102.05q6.66,3.33,11.5,3.33,18.8,0,27.82-38.56l2.36-9.89Q55.64,0,91.31,0q14.18,0,15.47,11.92a33,33,0,0,0-6.56-.75q-14,0-20.89,7.79T66.39,49.2L63,61.77Q56.61,85.4,46.46,97.43T17.62,115.37q26.31,8.8,26.32,28.79,0,12.14-6.77,28.47L34,180.36q-4.85,11.5-4.84,15.26,0,13.53,21.06,13.53a46.4,46.4,0,0,0,11.17-1.5Q56.83,220,44,220,8,220,8,194.22q0-6.89,4.73-18.16l3.22-7.84c1.14-2.86,2.25-5.55,3.33-8.05q6.56-15.48,6.55-22.67,0-8.81-11.82-14.39l-4.29-2Q0,116.56,0,108.93A54.64,54.64,0,0,1,.64,102.05Z"/><path d="M231.92,143.89a21.25,21.25,0,0,1,2,7.63q0,14-23.9,27.32t-49,13.34q-27.51,0-43.46-16t-15.95-43.83q0-43.93,28.79-75.51t68.86-31.59q16.32,0,27.5,5.82t11.17,14.2q0,7.53-9.67,16.57-13-25.92-36.84-25.95-26.12,0-45.54,27.09t-19.45,63.22q0,23.07,11.66,36.51t31.52,13.47Q203.57,176.16,231.92,143.89Z"/><path d="M331.72,47.48q16.62-22.23,43.89-22.24,23.28,0,38.41,16.92t15.13,42.92q0,40.5-32.55,73.8t-72.08,33.3q-28.47,0-47-18.85T259,125.58q0-31.36,21.14-54T331.72,47.48ZM323.5,59.19a49.83,49.83,0,0,0-30.21,20.52q-11.07,15.9-11.09,39.1,0,25.89,15.05,42.69t38.34,16.82q27.93,0,49.29-26.44t21.39-61.11q0-20.19-10.63-33.93T369.48,43.08q-15.78,0-27.36,12.84a43.92,43.92,0,0,0-11.58,30.45,46.16,46.16,0,0,0,5.9,23q-11.78-2.16-15.71-6.34t-3.94-14.83Q316.79,74.35,323.5,59.19Z"/><path d="M443.54,86.69A27.27,27.27,0,0,1,441,75.2q0-19.35,29.54-34.65t66.92-15.31q39.32,0,61.93,17.41T622,90.34q0,40.29-35.12,71-18.58,16.22-46.46,26.53t-53.34,10.31q-24.49,0-24.49-18.37,0-6.66,4.19-27.5l14-70.14a74.84,74.84,0,0,0,1.83-13A10.54,10.54,0,0,0,480,62.3q14.28-5.37,19.87-5.37,6.66,0,6.66,7.74,0,1.83-3.43,18.8l-11.71,58.76q-4.41,22.46-4.41,28.25,0,6.45,4.35,8.74t16.39,2.32q39,0,65.3-23.75t26.33-58.85q0-27.18-19.14-43.5T529.27,39.1A98,98,0,0,0,481,51.57,107.12,107.12,0,0,0,443.54,86.69Z"/><path d="M682.6,108.71l-5.5,27.61q-3.47,17.19-3.46,24.38,0,14.3,27.72,14.29,27.5,0,48.44-9.78-4.83,16.13-16,19.88-6.76,2.25-23.53,4.67t-25.78,2.42q-35.13,0-35.12-23.31,0-6.24,3.43-24l7.2-36.2h-1.61a49.62,49.62,0,0,0-21.06,4.73q5.91-11.61,9.73-14.83t12.08-3.22h3.55l10.52-53H670.1q-19.87,0-36.85,12.68Q638.62,37.92,648,33q7.31-3.76,45-3.76h32q30.3,0,49.2-6-8.48,13.44-15.07,16.33t-28.59,2.9H695.88l-10.69,53h22.22q23.28,0,37.13-5.91-7.31,13.65-13,16.44t-26.73,2.79Z"/><path d="M933.93,145.66q2.9,5.26,2.9,9.24,0,10.53-17.78,23.26t-32.39,12.73q-12.88,0-21-11.5t-8.11-29.64q0-20.2,10.63-57.47l5-18H855q-11.38,0-18.15,3.22,6.23-11.31,10.31-14.2T861,60.37h16.22l2.15-7.43q4.93-16.59,11.81-22.79T911.8,24c1.07,0,2.79.07,5.15.21q-8.37,10.77-17.4,36.2h56.72q14.93,0,22.77-3.88-2.68,11-7.14,14.37t-16.6,3.37H894.93c-.71,2.36-1.25,4.12-1.61,5.26q-13,44.27-13,66.82,0,24.91,17.94,24.92,9.24,0,20.14-7.84T933.93,145.66Z"/><path d="M974.64,141Q1006.65,69,1040,69q13.32,0,19.23,11.12t5.91,36l.11,12.89q0,33.53,9.88,34.06,8,.31,25.08-19.12T1135,95.07l8.92,4.94q-17.42,34.49-39.27,58.33t-36,23.85q-13.22,0-19-12.36t-5.8-40.39v-9.56q0-32.43-11.17-32.44-15.8,0-40.29,43.51-24.71,43.83-24.7,52a8.42,8.42,0,0,0,2,5.26q-4.83,2.69-12.57,2.69-9.57,0-9.56-8.49,0-5.91,6.77-35.77.21-1,2.79-13.86l22-110.86a41,41,0,0,1-14.5,2.69Q943.8,24.6,943.81,0a38.79,38.79,0,0,0,24,7.73,91.42,91.42,0,0,0,37-7.73L987.1,88.84q-.32,1.5-9.88,40Q976.47,132,974.64,141Z"/><path d="M1135.77,143.48q0,31.41,26.64,31.4,23.1,0,50.92-22T1263.5,95l9.13,5q-21.06,39.29-54.73,65.05T1154,190.89q-19.33,0-30.56-12.46t-11.22-34.05q0-31.15,20.35-53.29t49-22.13q13.86,0,22.18,7t8.33,18.69q0,19.22-23.15,34T1135.77,143.48Zm.86-10.31q22.45-1.18,38.51-12.86t16.06-27q0-13.71-12.24-13.71-14.61,0-27,15.64T1136.63,133.17Z"/><path d="M1269,187.45q-7.35,3.44-11.77,3.44-11,0-11-9.67,0-4.93,3.87-24.6l5.37-26.75q4.93-23.85,4.94-35.34a15.59,15.59,0,0,0-3.54-10.42q11.28-3.87,18.37-3.87,7.51,0,7.52,9.56,0,5.91-5.33,31.05l-6.08,31.26q20.28-39.42,40.83-61.28T1349.45,69a16,16,0,0,1,10.19,3.39,10.15,10.15,0,0,1,4.3,8.22q0,7.52-16.33,20-4.08-8.49-11.59-8.49-13.62,0-34.76,29a271.91,271.91,0,0,0-22.74,37.23q-9.66,19.17-9.65,27.34Z"/><path d="M1383.49,143.48q0,31.41,26.64,31.4,23.08,0,50.92-22T1511.21,95l9.13,5q-21,39.29-54.73,65.05t-63.86,25.77q-19.34,0-30.56-12.46T1360,144.38q0-31.15,20.36-53.29t49-22.13q13.85,0,22.18,7t8.32,18.69q0,19.22-23.15,34T1383.49,143.48Zm.86-10.31q22.44-1.18,38.51-12.86t16.06-27q0-13.71-12.25-13.71-14.61,0-27,15.64T1384.35,133.17Z"/><path d="M1582.65,122.57Q1568.88,151,1548.72,171t-35.12,19.93q-11.4,0-18.23-10.15t-6.82-27q0-33.61,20.37-59.19T1556.08,69q16.23,0,35.16,10.1,2.79-10,22.77-10c.86,0,2.26,0,4.19.11q-6.12,9.34-9.34,25.57l-1.83,9.13a179.82,179.82,0,0,0-3.11,35.66q0,23.52,10.95,23.53,11.61,0,31.75-19.39t39.58-49.36l8.38,5.8q-19.87,35.44-45.44,59.13t-43.93,23.69q-23.2,0-23.21-38.67Q1582,136.22,1582.65,122.57Zm5-25.68q-22.59-14.72-37.55-14.71-16.25,0-28.07,19.71t-11.84,46.78q0,21.71,14.2,21.7,15.39,0,58.84-67.46Q1583.82,102.06,1587.7,96.89Z"/><path d="M1783.74,100.65q-22.23,42.22-44.69,66.23t-39.74,24a24.71,24.71,0,0,1-20.31-9.72q-7.73-9.72-7.73-25.41,0-8.81,3.22-24.92L1695.87,23.2a48.91,48.91,0,0,1-7.31.65q-24.7,0-24.7-20.63V.75A58,58,0,0,0,1693,8.06q16.21,0,28.36-8.06l-24.92,129.23q-3.33,17.4-3.33,24,0,18.16,13.32,18.16,12.88,0,25.94-14.56t42.81-62Z"/><path d="M1836.06,93c-1,5.58-2.14,9.24-3.39,11s-4,3.33-8.11,4.84l-1.83.54a28.49,28.49,0,0,0-15.3,11.87q-5.22,8.33-9.83,28.19c-.36,1.37-1.08,4.3-2.15,8.81l-2.58,10.31Q1780.3,220,1743.78,220q-12.46,0-13.54-11.17a25.26,25.26,0,0,0,6.56,1q13.53,0,20.94-8.75t13-31.31l1.4-5.27q6.55-26.52,14.23-38.45t25.09-22.67q-22.89-2.69-22.89-18.91,0-11.16,7.85-29.11l3.54-8q7.2-16.23,7.2-21.92,0-14.07-19.44-14.07a43.1,43.1,0,0,0-13.32,2.26Q1777.4,0,1790.62,0q37.59,0,37.59,25.57,0,8.48-7.84,27.28l-2.79,7q-7.95,19.67-7.95,25.46,0,9.34,15.58,9.35A40.88,40.88,0,0,0,1836.06,93Z"/></g></g></svg>